<?xml version="1.0" encoding="UTF-8"?>
<!DOCTYPE svg PUBLIC "-//W3C//DTD SVG 1.1//EN" "http://www.w3.org/Graphics/SVG/1.1/DTD/svg11.dtd">
<!-- Creator: CorelDRAW X7 -->
<svg xmlns="http://www.w3.org/2000/svg" xml:space="preserve" width="200mm" height="200mm" version="1.1"
     style="shape-rendering:geometricPrecision; text-rendering:geometricPrecision; image-rendering:optimizeQuality; fill-rule:evenodd; clip-rule:evenodd"
     viewBox="0 0 20000 20000"
>
 <defs>
  <style type="text/css">
   <![CDATA[
    .fil0 {fill:none}
    .fil1 {fill:#535552}
   ]]>
  </style>
 </defs>
 <g id="Camada_x0020_1">
  <metadata id="CorelCorpID_0Corel-Layer"/>
  <rect class="fil0" width="20000" height="20000"/>
  <path class="fil1" d="M4392 11668c0,180 59,270 177,348 85,56 259,136 348,176 609,271 952,370 1600,532 276,69 598,121 892,190 -74,154 -90,436 -164,590 -98,48 -366,100 -492,131 -164,42 -344,86 -498,125 -1685,421 -3089,602 -4067,2165 -374,597 -584,1253 -584,2105 0,165 163,328 328,328l16136 0c307,0 327,-294 328,-473l0 -51c0,-720 -301,-1458 -584,-1909 -287,-459 -775,-961 -1242,-1251 -751,-466 -1874,-676 -2824,-914l-991 -256c-74,-154 -90,-436 -164,-590 285,-66 573,-110 866,-184 300,-75 539,-136 819,-230 140,-47 262,-79 391,-134 538,-228 1267,-432 786,-937 -361,-379 -704,-1077 -848,-1579 -244,-858 -361,-1592 -373,-2546 -2,-186 -35,-227 -35,-424 -1,-1022 -34,-2094 -355,-3056 -96,-287 -287,-728 -489,-954 -42,-47 -69,-72 -111,-118 -7,-7 -25,-28 -31,-35 -338,-352 -694,-453 -1180,-460 -232,-3 -181,-56 -321,-171 -603,-496 -989,-520 -1808,-520 -1294,0 -2919,1226 -3448,2390 -462,1017 -493,1143 -643,2276 -38,289 -39,1492 -80,1888 -109,1066 -346,2099 -926,2977 -73,111 -132,183 -212,280 -64,80 -201,172 -201,291z"/>
 </g>
</svg>
