<?xml version="1.0" encoding="UTF-8"?>
<!DOCTYPE svg PUBLIC "-//W3C//DTD SVG 1.1//EN" "http://www.w3.org/Graphics/SVG/1.1/DTD/svg11.dtd">
<!-- Creator: CorelDRAW X7 -->
<svg xmlns="http://www.w3.org/2000/svg" xml:space="preserve" width="200mm" height="200mm" version="1.1" style="shape-rendering:geometricPrecision; text-rendering:geometricPrecision; image-rendering:optimizeQuality; fill-rule:evenodd; clip-rule:evenodd"
viewBox="0 0 20000 20000"
 xmlns:xlink="http://www.w3.org/1999/xlink">
 <defs>
  <style type="text/css">
   <![CDATA[
    .fil0 {fill:none}
    .fil1 {fill:#535552}
   ]]>
  </style>
 </defs>
 <g id="Camada_x0020_1">
  <metadata id="CorelCorpID_0Corel-Layer"/>
  <rect class="fil0" width="20000" height="20000"/>
  <path class="fil1" d="M6304 6367c-173,46 -318,337 -356,509 -32,143 54,554 94,755 49,248 115,472 189,674 318,880 340,118 443,870 179,1312 786,1587 1081,2027 -478,2052 -1040,1988 -2526,2483 -552,184 -2095,647 -2463,888 -1096,721 -1151,1533 -1457,2757 -50,203 -152,505 -152,712 0,173 172,345 346,345l16994 0c174,0 346,-172 346,-345 0,-204 -97,-491 -145,-684 -53,-209 -111,-444 -166,-663 -114,-454 -203,-906 -435,-1258 -544,-828 -1032,-999 -2022,-1329l-2522 -828c-439,-157 -640,-448 -861,-832 -225,-392 -330,-744 -447,-1246 158,-236 447,-373 760,-1001 365,-732 288,-1209 397,-1365 76,-109 131,-39 226,-189 174,-274 468,-1453 428,-1746 -15,-107 -82,-235 -133,-313 -117,-178 -118,-192 -227,-221 0,-949 133,-2384 -201,-3219 -58,-144 -106,-239 -193,-359 -178,-246 -98,-146 -284,-304 -154,-130 -52,-324 -373,-767 -605,-834 -1641,-1016 -2714,-1016 -1133,0 -2354,766 -2957,1671 -804,1205 -670,2089 -670,3994z"/>
 </g>
</svg>
